HIERARCHY
ROOT Hips
{
	OFFSET 0.000000 0.000000 0.000000 
	CHANNELS 6 Xposition Yposition Zposition Yrotation Xrotation Zrotation
	JOINT Spine
	{
		OFFSET 0.000000 0.072080 0.012321 
		CHANNELS 3 Xrotation Yrotation Zrotation
		JOINT Spine1
		{
			OFFSET 0.000000 0.126984 -0.001294 
			CHANNELS 3 Xrotation Yrotation Zrotation
			JOINT Spine2
			{
				OFFSET 0.000000 0.106559 -0.010096 
				CHANNELS 3 Xrotation Yrotation Zrotation
				JOINT Neck
				{
					OFFSET 0.000000 0.108417 -0.034017 
					CHANNELS 3 Xrotation Yrotation Zrotation
					JOINT Neck1
					{
						OFFSET 0.000000 0.033906 0.007241 
						CHANNELS 3 Xrotation Yrotation Zrotation
						JOINT Head
						{
							OFFSET 0.000000 0.031458 0.006707 
							CHANNELS 3 Xrotation Yrotation Zrotation
							End Site
							{
								OFFSET 0.000000 0.179920 0.000962 
							}
						}
					}
				}
				JOINT LeftShoulder
				{
					OFFSET 0.048002 0.079586 -0.029634 
					CHANNELS 3 Zrotation Xrotation Yrotation
					JOINT LeftArm
					{
						OFFSET 0.096243 -0.008695 -0.014012 
						CHANNELS 3 Zrotation Xrotation Yrotation
						JOINT LeftForeArm
						{
							OFFSET 0.216305 0.000000 0.000000 
							CHANNELS 3 Xrotation Zrotation Yrotation
							JOINT LeftHand
							{
								OFFSET 0.217764 0.000000 0.000000 
								CHANNELS 3 Zrotation Yrotation Xrotation
								JOINT LeftHandThumb1
								{
									OFFSET 0.018582 -0.007835 0.020476 
									CHANNELS 3 Zrotation Xrotation Yrotation
									JOINT LeftHandThumb2
									{
										OFFSET 0.026269 -0.007835 0.022186 
										CHANNELS 3 Zrotation Xrotation Yrotation
										JOINT LeftHandThumb3
										{
											OFFSET 0.035170 -0.010504 0.017018 
											CHANNELS 3 Zrotation Xrotation Yrotation
											End Site
											{
												OFFSET 0.020312 -0.007813 0.007813 
											}
										}
									}
								}
								JOINT LeftHandMiddle1
								{
									OFFSET 0.081749 0.004803 0.003358 
									CHANNELS 3 Zrotation Xrotation Yrotation
									JOINT LeftHandMiddle2
									{
										OFFSET 0.045251 0.000000 0.000000 
										CHANNELS 3 Zrotation Xrotation Yrotation
										JOINT LeftHandMiddle3
										{
											OFFSET 0.029009 0.000000 0.000000 
											CHANNELS 3 Zrotation Xrotation Yrotation
											End Site
											{
												OFFSET 0.017969 0.000000 0.000000 
											}
										}
									}
								}
								JOINT LeftHandIndex1
								{
									OFFSET 0.081207 0.004803 0.021137 
									CHANNELS 3 Zrotation Xrotation Yrotation
									JOINT LeftHandIndex2
									{
										OFFSET 0.043354 0.000000 0.000000 
										CHANNELS 3 Zrotation Xrotation Yrotation
										JOINT LeftHandIndex3
										{
											OFFSET 0.026493 0.000000 0.000000 
											CHANNELS 3 Zrotation Xrotation Yrotation
											End Site
											{
												OFFSET 0.019531 0.000000 0.000000 
											}
										}
									}
								}
								JOINT LeftHandRing1
								{
									OFFSET 0.080666 0.002509 -0.014652 
									CHANNELS 3 Zrotation Xrotation Yrotation
									JOINT LeftHandRing2
									{
										OFFSET 0.042541 0.000000 0.000000 
										CHANNELS 3 Zrotation Xrotation Yrotation
										JOINT LeftHandRing3
										{
											OFFSET 0.029009 0.000000 0.000000 
											CHANNELS 3 Zrotation Xrotation Yrotation
											End Site
											{
												OFFSET 0.015625 0.000000 0.000000 
											}
										}
									}
								}
								JOINT LeftHandPinky1
								{
									OFFSET 0.078227 -0.000612 -0.030993 
									CHANNELS 3 Zrotation Xrotation Yrotation
									JOINT LeftHandPinky2
									{
										OFFSET 0.028721 0.000000 0.000000 
										CHANNELS 3 Zrotation Xrotation Yrotation
										JOINT LeftHandPinky3
										{
											OFFSET 0.021963 0.000000 0.000000 
											CHANNELS 3 Zrotation Xrotation Yrotation
											End Site
											{
												OFFSET 0.022656 0.000000 0.000000 
											}
										}
									}
								}
							}
						}
					}
				}
				JOINT RightShoulder
				{
					OFFSET -0.047970 0.079586 -0.029634 
					CHANNELS 3 Zrotation Xrotation Yrotation
					JOINT RightArm
					{
						OFFSET -0.096274 -0.008695 -0.014012 
						CHANNELS 3 Zrotation Xrotation Yrotation
						JOINT RightForeArm
						{
							OFFSET -0.216305 0.000000 0.000000 
							CHANNELS 3 Xrotation Zrotation Yrotation
							JOINT RightHand
							{
								OFFSET -0.217764 0.000000 0.000000 
								CHANNELS 3 Zrotation Yrotation Xrotation
								JOINT RightHandThumb1
								{
									OFFSET -0.019670 -0.007318 0.019638 
									CHANNELS 3 Zrotation Xrotation Yrotation
									JOINT RightHandThumb2
									{
										OFFSET -0.025498 -0.008492 0.023179 
										CHANNELS 3 Zrotation Xrotation Yrotation
										JOINT RightHandThumb3
										{
											OFFSET -0.034504 -0.010705 0.016680 
											CHANNELS 3 Zrotation Xrotation Yrotation
											End Site
											{
												OFFSET -0.020312 -0.007813 0.007813 
											}
										}
									}
								}
								JOINT RightHandIndex1
								{
									OFFSET -0.081770 0.003825 0.021187 
									CHANNELS 3 Zrotation Xrotation Yrotation
									JOINT RightHandIndex2
									{
										OFFSET -0.042006 0.000000 0.000000 
										CHANNELS 3 Zrotation Xrotation Yrotation
										JOINT RightHandIndex3
										{
											OFFSET -0.026449 0.000000 0.000000 
											CHANNELS 3 Zrotation Xrotation Yrotation
											End Site
											{
												OFFSET -0.020312 0.000000 0.000000 
											}
										}
									}
								}
								JOINT RightHandMiddle1
								{
									OFFSET -0.084059 0.003825 0.003342 
									CHANNELS 3 Zrotation Xrotation Yrotation
									JOINT RightHandMiddle2
									{
										OFFSET -0.043881 0.000000 0.000000 
										CHANNELS 3 Zrotation Xrotation Yrotation
										JOINT RightHandMiddle3
										{
											OFFSET -0.029191 0.000000 0.000000 
											CHANNELS 3 Zrotation Xrotation Yrotation
											End Site
											{
												OFFSET -0.017969 0.000000 0.000000 
											}
										}
									}
								}
								JOINT RightHandRing1
								{
									OFFSET -0.081798 0.003030 -0.015127 
									CHANNELS 3 Zrotation Xrotation Yrotation
									JOINT RightHandRing2
									{
										OFFSET -0.042198 0.000000 0.000000 
										CHANNELS 3 Zrotation Xrotation Yrotation
										JOINT RightHandRing3
										{
											OFFSET -0.026497 0.000000 0.000000 
											CHANNELS 3 Zrotation Xrotation Yrotation
											End Site
											{
												OFFSET -0.017188 0.000000 0.000000 
											}
										}
									}
								}
								JOINT RightHandPinky1
								{
									OFFSET -0.077902 -0.000930 -0.030891 
									CHANNELS 3 Zrotation Xrotation Yrotation
									JOINT RightHandPinky2
									{
										OFFSET -0.028538 0.000000 0.000000 
										CHANNELS 3 Zrotation Xrotation Yrotation
										JOINT RightHandPinky3
										{
											OFFSET -0.021734 0.000000 0.000000 
											CHANNELS 3 Zrotation Xrotation Yrotation
											End Site
											{
												OFFSET -0.022656 0.000000 0.000000 
											}
										}
									}
								}
							}
						}
					}
				}
			}
		}
	}
	JOINT LeftUpLeg
	{
		OFFSET 0.075264 -0.025573 0.000000 
		CHANNELS 3 Xrotation Yrotation Zrotation
		JOINT LeftLeg
		{
			OFFSET 0.000000 -0.326016 -0.013516 
			CHANNELS 3 Xrotation Yrotation Zrotation
			JOINT LeftFoot
			{
				OFFSET 0.000098 -0.306172 -0.006623 
				CHANNELS 3 Xrotation Yrotation Zrotation
				JOINT LeftToeBase
				{
					OFFSET -0.001432 -0.095259 0.064705 
					CHANNELS 3 Xrotation Yrotation Zrotation
					End Site
					{
						OFFSET 0.000000 0.000000 0.079438 
					}
				}
			}
		}
	}
	JOINT RightUpLeg
	{
		OFFSET -0.075264 -0.025573 0.000000 
		CHANNELS 3 Xrotation Yrotation Zrotation
		JOINT RightLeg
		{
			OFFSET 0.000000 -0.326016 -0.013516 
			CHANNELS 3 Xrotation Yrotation Zrotation
			JOINT RightFoot
			{
				OFFSET 0.000098 -0.306172 -0.006623 
				CHANNELS 3 Xrotation Yrotation Zrotation
				JOINT RightToeBase
				{
					OFFSET -0.001432 -0.095259 0.064705 
					CHANNELS 3 Xrotation Yrotation Zrotation
					End Site
					{
						OFFSET 0.000025 0.000000 0.079438 
					}
				}
			}
		}
	}
}
MOTION
Frames: 4
Frame Time: 0.033333
-0.000397 0.743255 -0.002899 -4.247200 3.380100 -0.351200 -0.467200 0.393400 -0.000200 0.201700 0.678400 -0.150000 0.198500 0.680000 -0.155800 -12.832600 -1.458100 2.883700 -0.000000 0.000000 -0.000000 11.218000 3.640900 -2.940600 -9.323300 3.391700 -10.667600 -64.675697 16.075199 -2.794100 0.000000 0.000000 -12.974200 -11.640600 1.125500 7.784800 14.485400 4.652100 1.954500 -2.163700 9.870600 16.037800 7.051600 0.477400 -4.339000 -22.368401 0.001400 4.736000 -42.013802 0.003900 -0.010100 -23.306101 0.001200 -0.006000 -20.708900 0.190100 0.178300 -32.135300 0.002300 -0.008000 -19.924999 0.000900 -0.005100 -31.719801 0.002700 3.746300 -35.751900 0.002800 -0.008800 -24.653601 0.001400 -0.006300 -42.359600 -3.290600 5.720700 -28.407600 0.001800 -0.007200 -10.080600 0.000200 -0.002600 10.634800 4.811200 14.171200 66.199303 1.290400 5.073600 -0.000000 -0.000000 7.462600 9.640700 -4.275300 14.718300 2.766400 -7.741600 -18.964001 -5.461800 7.238000 -6.267700 -24.692400 3.297000 -0.859800 15.914400 0.134700 0.580600 29.295099 0.001000 0.003900 15.587100 0.000300 0.002100 18.620199 0.000500 2.959300 36.818802 0.001600 0.004700 28.372000 0.001000 0.003800 36.090302 0.001700 3.268200 22.608500 0.000600 0.003000 21.157700 0.000500 0.002900 36.879799 0.001800 5.421900 29.765200 0.001000 0.003900 13.598200 0.000200 0.001900 -9.900900 12.371600 10.093800 10.562300 5.350200 2.072100 -3.298600 0.681500 -10.677900 0.016400 0.000400 -0.042400 -10.787100 -8.488800 -8.571300 8.535300 1.997500 -2.822900 -1.285100 -0.464800 10.360700 0.074500 -0.002800 0.175400 
-0.000456 0.743218 -0.002815 -4.209000 3.370800 -0.378700 -0.621700 0.386600 0.009800 0.250400 0.669100 -0.147000 0.247200 0.670600 -0.152900 -12.742500 -1.446800 2.866200 -0.000000 0.000000 -0.000000 11.199700 3.648000 -2.925600 -9.457000 3.398300 -10.702700 -64.678001 16.040400 -2.507300 -0.000000 -0.000000 -12.921400 -11.742000 1.138100 7.847400 14.485400 4.652100 1.954500 -2.152100 9.864600 16.018999 7.058200 0.473500 -4.349800 -22.358101 0.001400 4.708000 -42.024899 0.003900 -0.010100 -23.305099 0.001200 -0.005900 -20.703699 0.181000 0.157900 -32.131901 0.002300 -0.008000 -19.856400 0.000900 -0.005100 -31.731701 0.002700 3.710100 -35.766998 0.002800 -0.008800 -24.646799 0.001400 -0.006300 -42.344299 -3.267100 5.679400 -28.189199 0.001800 -0.007100 -10.080800 0.000200 -0.002600 10.742600 4.819800 14.183300 66.066200 1.165900 4.816400 -0.000000 0.000000 7.411100 9.620700 -4.336600 14.808100 2.766400 -7.741600 -18.964001 -5.428400 7.239100 -6.361100 -24.672501 3.295200 -0.871600 15.986400 0.129100 0.555600 29.059500 0.001000 0.003900 15.607800 0.000300 0.002100 18.698299 0.000500 2.926300 36.779499 0.001600 0.004700 28.373501 0.001000 0.003800 36.108002 0.001700 3.280700 22.631701 0.000600 0.003000 21.179501 0.000500 0.002900 36.902401 0.001800 5.407100 29.748400 0.001000 0.003900 13.663500 0.000200 0.001900 -9.953200 12.373800 10.144600 10.664500 5.287500 2.074500 -3.353500 0.687800 -10.706900 0.009800 0.000200 -0.025500 -10.759800 -8.476100 -8.537400 8.552200 1.941200 -2.826400 -1.307900 -0.466900 10.368000 0.072200 -0.002700 0.170000 
-0.000515 0.743163 -0.002838 -4.167400 3.394100 -0.415200 -0.794300 0.378800 0.028800 0.309200 0.658500 -0.141700 0.306000 0.660000 -0.147600 -12.646000 -1.435300 2.838100 -0.000000 0.000000 -0.000000 11.049800 3.637600 -2.874300 -9.626100 3.404700 -10.714400 -64.636703 15.950100 -2.255900 -0.000000 0.000000 -12.838100 -11.845900 1.169200 7.927300 14.485400 4.652100 1.954500 -2.120100 9.848100 15.967300 6.997100 0.489300 -4.302400 -22.422199 0.001400 4.712300 -42.033798 0.003900 -0.010100 -23.291000 0.001200 -0.005900 -20.748800 0.179400 0.153900 -32.128502 0.002300 -0.008000 -19.860300 0.000900 -0.005100 -31.739300 0.002700 3.701700 -35.765499 0.002800 -0.008800 -24.656000 0.001400 -0.006300 -42.313801 -3.291100 5.721600 -28.143801 0.001800 -0.007100 -10.115200 0.000200 -0.002600 10.906100 4.834600 14.172800 65.874100 1.032700 4.611100 0.000000 -0.000000 7.338900 9.584300 -4.366800 14.847800 2.766400 -7.741600 -18.964001 -5.453500 7.238600 -6.290600 -24.707600 3.299000 -0.847700 15.949400 0.126100 0.542100 28.849899 0.001000 0.003800 15.598800 0.000300 0.002100 18.664000 0.000500 2.931800 36.755699 0.001600 0.004700 28.397301 0.001000 0.003700 36.044601 0.001700 3.264700 22.627501 0.000600 0.003000 21.145100 0.000500 0.002900 36.883202 0.001800 5.474800 29.728201 0.001000 0.003900 13.634700 0.000200 0.001900 -10.096000 12.362800 10.218900 10.859400 5.222400 2.063600 -3.445400 0.695800 -10.713900 0.008900 0.000200 -0.023000 -10.786400 -8.452600 -8.495100 8.598000 1.885500 -2.828300 -1.337000 -0.468900 10.364600 0.073000 -0.002700 0.171700 
-0.000546 0.743117 -0.002934 -4.148800 3.453700 -0.440900 -0.978000 0.376900 0.050000 0.383600 0.657600 -0.139500 0.380400 0.659000 -0.145400 -12.565800 -1.430900 2.810200 -0.000000 0.000000 -0.000000 10.767600 3.603400 -2.851600 -9.854000 3.414500 -10.709800 -64.518799 15.809600 -2.059100 0.000000 -0.000000 -12.751300 -11.848900 1.220600 8.049700 14.485400 4.652000 1.954500 -2.134100 9.855300 15.990000 7.001700 0.489400 -4.301500 -22.372299 0.001400 4.645200 -42.030998 0.003900 -0.010100 -23.312000 0.001200 -0.005900 -20.806499 0.174800 0.143500 -32.125500 0.002300 -0.008000 -19.860201 0.000900 -0.005100 -31.761900 0.002700 3.692900 -35.764702 0.002800 -0.008800 -24.654600 0.001400 -0.006300 -42.270199 -3.290500 5.720600 -27.992100 0.001800 -0.007100 -10.163200 0.000200 -0.002700 11.101400 4.852200 14.148700 65.648300 0.900800 4.476600 -0.000000 -0.000000 7.257000 9.541900 -4.348700 14.879000 2.766400 -7.741600 -18.964001 -5.529300 7.236800 -6.076800 -24.792200 3.307900 -0.791900 15.841900 0.129700 0.558500 29.302601 0.001000 0.003900 15.595600 0.000300 0.002100 18.596701 0.000500 2.968900 36.845600 0.001600 0.004700 28.384600 0.001000 0.003800 36.042400 0.001700 3.280000 22.669500 0.000600 0.003000 21.176201 0.000500 0.002900 36.876202 0.001800 5.467600 29.775299 0.001000 0.003900 13.606500 0.000200 0.001900 -10.251500 12.341900 10.273400 11.013100 5.196500 2.051400 -3.511300 0.701600 -10.718200 0.007700 0.000200 -0.019800 -10.865200 -8.431700 -8.468700 8.641800 1.852600 -2.823000 -1.353100 -0.469900 10.361000 0.071800 -0.002600 0.168900 
